<?xml version="1.0" encoding="iso-8859-1"?>
<!-- Generator: Adobe Illustrator 19.0.0, SVG Export Plug-In . SVG Version: 6.00 Build 0)  -->
<svg version="1.1" id="Capa_1" xmlns="http://www.w3.org/2000/svg" xmlns:xlink="http://www.w3.org/1999/xlink" width="50px" height="45px"
	 viewBox="0 0 512 512" style="enable-background:new 0 0 512 512;" xml:space="preserve">
<path style="fill:#009688;" d="M32,80h448c17.673,0,32,14.327,32,32v288c0,17.673-14.327,32-32,32H32c-17.673,0-32-14.327-32-32V112
	C0,94.327,14.327,80,32,80z"/>
<path d="M480,432H32c-17.673,0-32-14.327-32-32V112c0-17.673,14.327-32,32-32h448c17.673,0,32,14.327,32,32v288
	C512,417.673,497.673,432,480,432z M32,112v288h448V112H32z"/>
<path d="M144,176H80c-8.837,0-16-7.163-16-16s7.163-16,16-16h64c8.837,0,16,7.163,16,16S152.837,176,144,176z"/>
<path d="M432,368h-64c-8.837,0-16-7.163-16-16s7.163-16,16-16h64c8.837,0,16,7.163,16,16S440.837,368,432,368z"/>
<g>
	<path style="fill:#FAFAFA;" d="M272,240h-96c-8.837,0-16-7.163-16-16s7.163-16,16-16h96c8.837,0,16,7.163,16,16
		S280.837,240,272,240z"/>
	<path style="fill:#FAFAFA;" d="M256,304h-80c-8.837,0-16-7.163-16-16s7.163-16,16-16h80c8.837,0,16,7.163,16,16
		S264.837,304,256,304z"/>
	<path style="fill:#FAFAFA;" d="M272,368c-44.8,0-80-49.216-80-112s35.2-112,80-112c26.574,1.343,50.301,17.071,61.888,41.024
		c4.418,7.67,1.782,17.47-5.888,21.888s-17.47,1.782-21.888-5.888C300.039,187.179,287.03,177.636,272,176c-26.016,0-48,36.64-48,80
		s21.984,80,48,80c15.001-1.611,28.003-11.101,34.112-24.896c4.418-7.67,14.218-10.306,21.888-5.888s10.306,14.218,5.888,21.888l0,0
		C322.266,351.007,298.546,366.682,272,368z"/>
</g>
<g>
</g>
<g>
</g>
<g>
</g>
<g>
</g>
<g>
</g>
<g>
</g>
<g>
</g>
<g>
</g>
<g>
</g>
<g>
</g>
<g>
</g>
<g>
</g>
<g>
</g>
<g>
</g>
<g>
</g>
</svg>
